
<svg xmlns="http://www.w3.org/2000/svg" id="foster" width="168" height="88" fill="none"><rect width="167" height="87" x=".5" y=".5" stroke="#8E8F99" rx="3.5"/><path fill="#8E8F99" d="M56.0782 37.5179h-.0029c-2.3856 0-4.3196 1.7436-4.3196 3.8945v.0025c0 2.1509 1.934 3.8945 4.3196 3.8945h.0029c2.3856 0 4.3196-1.7436 4.3196-3.8945v-.0025c0-2.1509-1.934-3.8945-4.3196-3.8945ZM87.9614 36.273c-.0068-2.9875-1.3259-5.8509-3.6686-7.9636-2.3427-2.1127-5.5183-3.3026-8.8318-3.3094-3.3144.0054-6.4914 1.1948-8.8354 3.3076-2.3439 2.1129-3.6638 4.977-3.6706 7.9654v16.4742s25.0035-2.5108 25.0064-16.4717v-.0025ZM43 58.1543c.006 2.0787.9243 4.0707 2.5543 5.5408 1.63 1.4701 3.8392 2.2988 6.1447 2.3049 2.305-.0061 4.5137-.8344 6.1436-2.304 1.6299-1.4695 2.5486-3.4609 2.5554-5.5392v-11.463S43 48.4421 43 58.1543Zm8.699 2.0538c-.4506 0-.891-.1204-1.2656-.3461-.3746-.2257-.6666-.5465-.839-.9218-.1724-.3752-.2175-.7882-.1296-1.1866.0879-.3984.3048-.7644.6234-1.0516.3186-.2873.7245-.4829 1.1664-.5621.4419-.0793.8999-.0386 1.3161.1169.4163.1554.772.4187 1.0223.7564.2503.3378.3839.7349.3839 1.1411.0012.2703-.0569.5382-.1709.7883-.114.2501-.2816.4774-.4932.6689-.2117.1916-.4632.3436-.7401.4473-.2769.1036-.5739.157-.8737.157v-.0077ZM67.6089 56.515v4.2656H66.73V56.515h.8789Zm1.6992 1.8222v.6856h-1.9394v-.6856h1.9394Zm.2051-1.8222v.6884h-2.1445v-.6884h2.1445Zm4.0137 2.0332v.2021c0 .3242-.044.6152-.1319.8731-.0879.2578-.2119.4775-.3721.6591-.1601.1797-.3515.3174-.5742.4131-.2207.0957-.4658.1436-.7353.1436-.2676 0-.5127-.0479-.7354-.1436-.2207-.0957-.4121-.2334-.5742-.4131-.1621-.1816-.2881-.4013-.3779-.6591-.0879-.2579-.1319-.5489-.1319-.8731v-.2021c0-.3262.044-.6172.1319-.8731.0879-.2578.2119-.4775.372-.6592.1622-.1816.3536-.3203.5743-.416.2226-.0957.4677-.1435.7353-.1435.2696 0 .5147.0478.7354.1435.2226.0957.414.2344.5742.416.1621.1817.2871.4014.375.6592.0898.2559.1348.5469.1348.8731Zm-.8877.2021v-.208c0-.2266-.0205-.4258-.0616-.5977-.041-.1718-.1015-.3164-.1816-.4336-.0801-.1171-.1777-.205-.293-.2636-.1152-.0606-.247-.0908-.3955-.0908-.1484 0-.2803.0302-.3955.0908-.1133.0586-.2099.1465-.29.2636-.0782.1172-.1377.2618-.1787.4336-.0411.1719-.0616.3711-.0616.5977v.208c0 .2246.0205.4238.0616.5977.041.1718.1015.3173.1816.4365.0801.1172.1777.206.293.2666.1152.0605.247.0908.3955.0908.1484 0 .2803-.0303.3955-.0908.1152-.0606.2119-.1494.29-.2666.0782-.1192.1377-.2647.1787-.4365.0411-.1739.0616-.3731.0616-.5977Zm3.7412.9141c0-.0762-.0117-.1446-.0352-.2051-.0215-.0625-.0625-.1192-.123-.1699-.0606-.0528-.1455-.1045-.2549-.1553-.1094-.0508-.251-.1035-.4248-.1582-.1934-.0625-.377-.1328-.5508-.2109-.1719-.0782-.3242-.169-.457-.2725-.1309-.1055-.2344-.2275-.3106-.3662-.0742-.1387-.1113-.2998-.1113-.4834 0-.1778.0391-.3389.1172-.4834.0781-.1465.1875-.2715.3281-.375.1406-.1055.3066-.1865.4981-.2432.1933-.0566.4052-.0849.6357-.0849.3144 0 .5889.0566.8232.1699.2344.1133.4161.2685.545.4658.1308.1973.1962.4229.1962.6768h-.873c0-.125-.0264-.2344-.0791-.3282-.0508-.0957-.1289-.1709-.2344-.2256-.1035-.0546-.2344-.082-.3926-.082-.1523 0-.2793.0235-.3808.0703-.1016.045-.1777.1065-.2285.1846-.0508.0762-.0762.1621-.0762.2578 0 .0723.0176.1377.0527.1963.0371.0586.0918.1133.1641.1641.0723.0507.1611.0986.2666.1435.1055.0449.2275.0889.3662.1319.2324.0703.4365.1494.6123.2373.1777.0879.3262.1865.4453.2959.1192.1093.209.2334.2696.372.0605.1387.0908.2959.0908.4717 0 .1856-.0362.3516-.1084.4981-.0723.1464-.1768.2705-.3135.372-.1367.1016-.2998.1787-.4893.2315-.1894.0527-.4013.0791-.6357.0791-.2109 0-.4189-.0274-.624-.0821-.2051-.0566-.3916-.1416-.5596-.2548-.166-.1133-.2988-.2579-.3984-.4336-.0996-.1758-.1494-.3838-.1494-.6241h.8818c0 .1329.0205.2452.0615.337.041.0918.0986.166.1729.2226.0761.0567.166.0977.2695.1231.1055.0253.2207.038.3457.038.1523 0 .2773-.0214.375-.0644.0996-.043.1729-.1025.2197-.1787.0489-.0762.0733-.1621.0733-.2578Zm3.3838-3.1494v4.2656h-.876V56.515h.876Zm1.3125 0v.6884h-3.4805v-.6884h3.4805Zm3.3632 3.58v.6856h-2.2705v-.6856h2.2705Zm-1.9834-3.58v4.2656h-.8789V56.515h.8789Zm1.6875 1.7373v.6679h-1.9746v-.6679h1.9746Zm.293-1.7373v.6884h-2.2676v-.6884h2.2676Zm.5156 0h1.5909c.3261 0 .6064.0488.8408.1464.2363.0977.4179.2422.5449.4336.127.1914.1904.4268.1904.7061 0 .2285-.039.4248-.1172.5889-.0761.1621-.1845.2978-.3252.4072-.1386.1074-.3017.1933-.4892.2578l-.2783.1465h-1.3828l-.0059-.6856h1.0283c.1543 0 .2822-.0273.3838-.082.1016-.0547.1777-.1309.2285-.2285.0528-.0977.0791-.211.0791-.3399 0-.1367-.0254-.2548-.0761-.3545-.0508-.0996-.128-.1757-.2315-.2285-.1035-.0527-.2334-.0791-.3896-.0791h-.712v3.5772h-.8789V56.515Zm2.3848 4.2656-.9727-1.9014.9288-.0058.9843 1.8662v.041h-.9404Zm4.6143-1.5205h-1.087v-.6856h1.087c.1679 0 .3046-.0273.4101-.082.1055-.0566.1826-.1348.2315-.2344.0488-.0996.0732-.2119.0732-.3369 0-.1269-.0244-.2451-.0732-.3545-.0489-.1094-.126-.1973-.2315-.2637-.1055-.0664-.2422-.0996-.4101-.0996h-.7823v3.5772h-.8789V56.515h1.6612c.3339 0 .6201.0605.8584.1816.2402.1191.4238.2842.5507.4951.127.2109.1905.4522.1905.7236 0 .2754-.0635.5137-.1905.7149-.1269.2012-.3105.3564-.5507.4658-.2383.1094-.5245.1641-.8584.1641Zm5.0683.8349v.6856h-2.2705v-.6856H97.02Zm-1.9834-3.58v4.2656h-.8789V56.515h.8789Zm1.6875 1.7373v.6679h-1.9746v-.6679h1.9746Zm.293-1.7373v.6884h-2.2676v-.6884h2.2676Zm2.4814 0v4.2656h-.8759V56.515h.8759Zm1.3125 0v.6884h-3.4804v-.6884h3.4804Zm3.363 3.58v.6856h-2.27v-.6856h2.27Zm-1.983-3.58v4.2656h-.879V56.515h.879Zm1.687 1.7373v.6679h-1.974v-.6679h1.974Zm.293-1.7373v.6884h-2.267v-.6884h2.267Zm.516 0h1.591c.326 0 .606.0488.841.1464.236.0977.418.2422.545.4336.127.1914.19.4268.19.7061 0 .2285-.039.4248-.117.5889-.076.1621-.185.2978-.325.4072-.139.1074-.302.1933-.49.2578l-.278.1465h-1.383l-.006-.6856h1.029c.154 0 .282-.0273.383-.082.102-.0547.178-.1309.229-.2285.053-.0977.079-.211.079-.3399 0-.1367-.025-.2548-.076-.3545-.051-.0996-.128-.1757-.232-.2285-.103-.0527-.233-.0791-.389-.0791h-.712v3.5772h-.879V56.515Zm2.385 4.2656-.973-1.9014.929-.0058.984 1.8662v.041h-.94Zm3.679-1.1162c0-.0762-.011-.1446-.035-.2051-.021-.0625-.062-.1192-.123-.1699-.06-.0528-.145-.1045-.255-.1553-.109-.0508-.251-.1035-.424-.1582-.194-.0625-.377-.1328-.551-.2109-.172-.0782-.324-.169-.457-.2725-.131-.1055-.235-.2275-.311-.3662-.074-.1387-.111-.2998-.111-.4834 0-.1778.039-.3389.117-.4834.078-.1465.188-.2715.328-.375.141-.1055.307-.1865.498-.2432.194-.0566.406-.0849.636-.0849.314 0 .589.0566.823.1699.235.1133.416.2685.545.4658.131.1973.196.4229.196.6768h-.873c0-.125-.026-.2344-.079-.3282-.05-.0957-.129-.1709-.234-.2256-.104-.0546-.234-.082-.393-.082-.152 0-.279.0235-.381.0703-.101.045-.177.1065-.228.1846-.051.0762-.076.1621-.076.2578 0 .0723.017.1377.053.1963.037.0586.091.1133.164.1641.072.0507.161.0986.266.1435.106.0449.228.0889.366.1319.233.0703.437.1494.613.2373.177.0879.326.1865.445.2959.119.1093.209.2334.27.372.06.1387.09.2959.09.4717 0 .1856-.036.3516-.108.4981-.072.1464-.177.2705-.314.372-.136.1016-.299.1787-.489.2315-.189.0527-.401.0791-.636.0791-.21 0-.418-.0274-.624-.0821-.205-.0566-.391-.1416-.559-.2548-.166-.1133-.299-.2579-.399-.4336-.099-.1758-.149-.3838-.149-.6241h.882c0 .1329.02.2452.061.337.041.0918.099.166.173.2226.076.0567.166.0977.27.1231.105.0253.22.038.345.038.153 0 .278-.0214.375-.0644.1-.043.173-.1025.22-.1787.049-.0762.073-.1621.073-.2578Z"/></svg>